<?xml version="1.0" standalone="no"?>
<!DOCTYPE svg PUBLIC "-//W3C//DTD SVG 20010904//EN"
 "http://www.w3.org/TR/2001/REC-SVG-20010904/DTD/svg10.dtd">
<svg version="1.0" xmlns="http://www.w3.org/2000/svg"
 width="401.000000pt" height="225.000000pt" viewBox="0 0 401.000000 225.000000"
 preserveAspectRatio="xMidYMid meet">
<metadata>
Created by potrace 1.16, written by Peter Selinger 2001-2019
</metadata>
<g transform="translate(0.000000,225.000000) scale(0.100000,-0.100000)"
fill="#000000" stroke="none">
<path d="M0 1125 l0 -1125 2005 0 2005 0 0 1125 0 1125 -2005 0 -2005 0 0
-1125z m1306 224 c22 -20 24 -30 24 -105 0 -46 5 -95 12 -108 9 -22 8 -29 -7
-46 -22 -24 -33 -25 -57 -3 -17 15 -19 15 -36 0 -19 -17 -76 -23 -107 -11 -25
10 -48 62 -40 93 11 45 44 70 107 82 32 6 58 13 58 15 0 1 -4 14 -10 28 -12
32 -43 34 -67 6 -17 -20 -67 -28 -77 -12 -10 16 20 57 54 75 46 24 112 18 146
-14z m437 3 c15 -13 17 -34 17 -149 l0 -133 -35 0 -34 0 -3 113 -3 112 -30 0
-30 0 -3 -112 -3 -113 -39 0 -40 0 0 110 c0 98 -2 110 -19 120 -15 7 -23 6
-35 -6 -13 -12 -16 -38 -16 -120 l0 -104 -35 0 -35 0 0 150 0 150 30 0 c16 0
33 -7 38 -16 8 -14 10 -14 21 0 20 24 80 20 108 -6 13 -12 23 -16 23 -9 0 16
58 40 84 33 12 -3 29 -12 39 -20z m251 14 c19 -8 37 -20 42 -27 5 -8 12 -54
15 -104 3 -49 9 -99 13 -111 6 -16 1 -25 -19 -38 -25 -16 -28 -17 -45 -1 -17
16 -21 16 -42 1 -12 -9 -41 -16 -64 -16 -34 0 -47 5 -63 26 -53 67 -5 142 102
159 34 6 38 9 35 33 -4 35 -39 41 -67 13 -22 -22 -65 -28 -76 -11 -10 17 23
60 58 75 41 18 70 18 111 1z m324 -21 c2 -12 -19 -51 -48 -94 -29 -40 -50 -74
-48 -75 1 -1 23 -8 48 -16 40 -13 45 -19 48 -49 3 -31 2 -33 -20 -26 -31 11
-137 12 -165 2 -21 -8 -23 -5 -23 28 0 29 13 55 56 116 l55 79 -50 0 c-50 0
-51 1 -51 30 l0 31 98 -3 c89 -3 97 -5 100 -23z m231 0 c40 -34 58 -111 41
-174 -20 -74 -68 -109 -140 -102 -104 11 -137 198 -49 280 34 31 108 29 148
-4z m161 3 l0 -22 16 22 c20 29 85 31 114 2 18 -18 20 -33 20 -150 l0 -130
-35 0 -35 0 0 104 c0 109 -12 142 -46 129 -25 -9 -34 -48 -34 -144 l0 -89 -35
0 -35 0 0 150 0 150 35 0 c30 0 35 -3 35 -22z m-436 -306 c10 -16 -16 -99 -40
-127 -18 -21 -24 -24 -19 -10 34 96 35 104 14 116 -12 6 -43 8 -72 5 -51 -6
-51 -5 -22 9 32 15 131 20 139 7z m-692 -99 c42 -10 73 -20 69 -23 -5 -3 45
-6 110 -8 129 -3 271 16 361 49 74 27 88 24 42 -10 -82 -59 -253 -103 -378
-97 -93 5 -188 24 -181 37 3 5 -1 6 -9 3 -29 -11 -246 109 -246 136 0 3 35
-11 78 -32 42 -21 112 -46 154 -55z"/>
<path d="M1222 1212 c-33 -5 -56 -45 -42 -71 20 -38 55 -23 70 29 11 39 5 48
-28 42z"/>
<path d="M1944 1212 c-49 -7 -69 -62 -32 -86 26 -16 61 21 56 60 -2 23 -7 28
-24 26z"/>
<path d="M2446 1298 c-24 -33 -21 -129 3 -159 39 -48 77 13 66 106 -9 75 -38
97 -69 53z"/>
<path d="M2075 930 c-16 -7 -17 -9 -3 -9 9 -1 20 4 23 9 7 11 7 11 -20 0z"/>
<path d="M1941 901 c-7 -5 -23 -7 -35 -4 -18 4 -19 3 -4 -7 19 -11 68 -4 68
11 0 11 -11 11 -29 0z"/>
<path d="M1834 885 c24 -18 39 -20 34 -2 -3 6 -15 13 -29 15 -23 2 -23 2 -5
-13z"/>
<path d="M1757 883 c-3 -5 6 -9 19 -9 13 -1 24 2 24 7 0 11 -37 12 -43 2z"/>
</g>
</svg>
